<mxfile host="app.diagrams.net" modified="2023-12-12T14:14:02.528Z" agent="Mozilla/5.0 (X11; Linux x86_64) AppleWebKit/537.36 (KHTML, like Gecko) Chrome/118.0.0.0 Safari/537.36" etag="I5VdIBhircX0vAx4nTfS" version="22.1.7" type="device">
  <diagram name="Page-1" id="0EwHxPbBKP9pm_-42XOE">
    <mxGraphModel dx="989" dy="532" grid="1" gridSize="10" guides="1" tooltips="1" connect="1" arrows="1" fold="1" page="1" pageScale="1" pageWidth="827" pageHeight="1169" math="0" shadow="0">
      <root>
        <mxCell id="0" />
        <mxCell id="1" parent="0" />
        <mxCell id="rBm0Z_b_FbCbimcUGVIC-1" value="q0" style="ellipse;whiteSpace=wrap;html=1;fillColor=none;fontSize=16;" vertex="1" parent="1">
          <mxGeometry x="120" y="360" width="80" height="80" as="geometry" />
        </mxCell>
        <mxCell id="rBm0Z_b_FbCbimcUGVIC-2" value="q1" style="ellipse;whiteSpace=wrap;html=1;fillColor=none;fontSize=16;" vertex="1" parent="1">
          <mxGeometry x="280" y="360" width="80" height="80" as="geometry" />
        </mxCell>
        <mxCell id="rBm0Z_b_FbCbimcUGVIC-3" value="q2" style="ellipse;whiteSpace=wrap;html=1;fillColor=none;fontSize=16;" vertex="1" parent="1">
          <mxGeometry x="440" y="360" width="80" height="80" as="geometry" />
        </mxCell>
        <mxCell id="rBm0Z_b_FbCbimcUGVIC-4" value="q3" style="ellipse;whiteSpace=wrap;html=1;fillColor=none;fontSize=16;" vertex="1" parent="1">
          <mxGeometry x="120" y="520" width="80" height="80" as="geometry" />
        </mxCell>
        <mxCell id="rBm0Z_b_FbCbimcUGVIC-5" value="" style="endArrow=classic;html=1;rounded=0;entryX=0;entryY=0.5;entryDx=0;entryDy=0;" edge="1" parent="1" target="rBm0Z_b_FbCbimcUGVIC-1">
          <mxGeometry width="50" height="50" relative="1" as="geometry">
            <mxPoint x="40" y="400" as="sourcePoint" />
            <mxPoint x="460" y="480" as="targetPoint" />
          </mxGeometry>
        </mxCell>
        <mxCell id="rBm0Z_b_FbCbimcUGVIC-8" value="&amp;nbsp;0..9" style="endArrow=classic;html=1;rounded=0;exitX=0.5;exitY=1;exitDx=0;exitDy=0;entryX=0.5;entryY=0;entryDx=0;entryDy=0;fontSize=16;labelPosition=right;verticalLabelPosition=middle;align=left;verticalAlign=middle;" edge="1" parent="1" source="rBm0Z_b_FbCbimcUGVIC-1" target="rBm0Z_b_FbCbimcUGVIC-4">
          <mxGeometry width="50" height="50" relative="1" as="geometry">
            <mxPoint x="410" y="530" as="sourcePoint" />
            <mxPoint x="460" y="480" as="targetPoint" />
          </mxGeometry>
        </mxCell>
        <mxCell id="rBm0Z_b_FbCbimcUGVIC-9" value="" style="ellipse;whiteSpace=wrap;html=1;fillColor=none;" vertex="1" parent="1">
          <mxGeometry x="447.5" y="367.5" width="65" height="65" as="geometry" />
        </mxCell>
        <mxCell id="rBm0Z_b_FbCbimcUGVIC-11" value="" style="edgeStyle=orthogonalEdgeStyle;orthogonalLoop=1;jettySize=auto;html=1;exitX=1;exitY=1;exitDx=0;exitDy=0;curved=1;entryX=0.5;entryY=1;entryDx=0;entryDy=0;fontSize=16;labelPosition=center;verticalLabelPosition=bottom;align=center;verticalAlign=top;" edge="1" parent="1">
          <mxGeometry relative="1" as="geometry">
            <mxPoint x="479.99999999999994" y="442" as="targetPoint" />
            <Array as="points">
              <mxPoint x="540" y="430" />
              <mxPoint x="540" y="492" />
              <mxPoint x="479.99999999999994" y="492" />
            </Array>
            <mxPoint x="507.99999999999994" y="430" as="sourcePoint" />
          </mxGeometry>
        </mxCell>
        <mxCell id="rBm0Z_b_FbCbimcUGVIC-12" value="" style="edgeStyle=orthogonalEdgeStyle;orthogonalLoop=1;jettySize=auto;html=1;exitX=1;exitY=1;exitDx=0;exitDy=0;curved=1;entryX=0.5;entryY=1;entryDx=0;entryDy=0;fontSize=16;labelPosition=right;verticalLabelPosition=middle;align=left;verticalAlign=middle;" edge="1" parent="1">
          <mxGeometry relative="1" as="geometry">
            <mxPoint x="319.99999999999994" y="442" as="targetPoint" />
            <Array as="points">
              <mxPoint x="379.99999999999994" y="430" />
              <mxPoint x="379.99999999999994" y="492" />
              <mxPoint x="319.99999999999994" y="492" />
            </Array>
            <mxPoint x="347.99999999999994" y="430" as="sourcePoint" />
          </mxGeometry>
        </mxCell>
        <mxCell id="rBm0Z_b_FbCbimcUGVIC-13" value="a..z" style="endArrow=classic;html=1;exitX=0.5;exitY=0;exitDx=0;exitDy=0;entryX=0.5;entryY=0;entryDx=0;entryDy=0;curved=1;fontSize=16;labelPosition=center;verticalLabelPosition=top;align=center;verticalAlign=bottom;" edge="1" parent="1" source="rBm0Z_b_FbCbimcUGVIC-1" target="rBm0Z_b_FbCbimcUGVIC-3">
          <mxGeometry width="50" height="50" relative="1" as="geometry">
            <mxPoint x="360" y="530" as="sourcePoint" />
            <mxPoint x="410" y="480" as="targetPoint" />
            <Array as="points">
              <mxPoint x="160" y="320" />
              <mxPoint x="480" y="320" />
            </Array>
          </mxGeometry>
        </mxCell>
        <mxCell id="rBm0Z_b_FbCbimcUGVIC-16" value="a..z,0..9" style="endArrow=classic;html=1;rounded=0;entryX=0;entryY=0.5;entryDx=0;entryDy=0;exitX=1;exitY=0.5;exitDx=0;exitDy=0;fontSize=16;labelPosition=center;verticalLabelPosition=top;align=center;verticalAlign=bottom;" edge="1" parent="1" source="rBm0Z_b_FbCbimcUGVIC-2" target="rBm0Z_b_FbCbimcUGVIC-3">
          <mxGeometry width="50" height="50" relative="1" as="geometry">
            <mxPoint x="360" y="530" as="sourcePoint" />
            <mxPoint x="410" y="480" as="targetPoint" />
          </mxGeometry>
        </mxCell>
        <mxCell id="rBm0Z_b_FbCbimcUGVIC-18" value="_" style="text;html=1;strokeColor=none;fillColor=none;align=center;verticalAlign=middle;whiteSpace=wrap;rounded=0;fontSize=16;" vertex="1" parent="1">
          <mxGeometry x="322" y="485" width="60" height="30" as="geometry" />
        </mxCell>
        <mxCell id="rBm0Z_b_FbCbimcUGVIC-19" value="a..z,_,0..9" style="text;html=1;strokeColor=none;fillColor=none;align=center;verticalAlign=middle;whiteSpace=wrap;rounded=0;fontSize=16;" vertex="1" parent="1">
          <mxGeometry x="472" y="490" width="80" height="30" as="geometry" />
        </mxCell>
        <mxCell id="rBm0Z_b_FbCbimcUGVIC-20" value="" style="edgeStyle=orthogonalEdgeStyle;orthogonalLoop=1;jettySize=auto;html=1;exitX=1;exitY=1;exitDx=0;exitDy=0;curved=1;entryX=0.5;entryY=1;entryDx=0;entryDy=0;fontSize=16;labelPosition=center;verticalLabelPosition=bottom;align=center;verticalAlign=top;" edge="1" parent="1">
          <mxGeometry relative="1" as="geometry">
            <mxPoint x="157.99999999999994" y="602" as="targetPoint" />
            <Array as="points">
              <mxPoint x="218" y="590" />
              <mxPoint x="218" y="652" />
              <mxPoint x="157.99999999999994" y="652" />
            </Array>
            <mxPoint x="186" y="590" as="sourcePoint" />
          </mxGeometry>
        </mxCell>
        <mxCell id="rBm0Z_b_FbCbimcUGVIC-21" value="a..z,_,0..9" style="text;html=1;strokeColor=none;fillColor=none;align=center;verticalAlign=middle;whiteSpace=wrap;rounded=0;fontSize=16;" vertex="1" parent="1">
          <mxGeometry x="150" y="650" width="80" height="30" as="geometry" />
        </mxCell>
        <mxCell id="rBm0Z_b_FbCbimcUGVIC-22" value="" style="endArrow=classic;html=1;rounded=0;entryX=0;entryY=0.5;entryDx=0;entryDy=0;exitX=1;exitY=0.5;exitDx=0;exitDy=0;" edge="1" parent="1" source="rBm0Z_b_FbCbimcUGVIC-1" target="rBm0Z_b_FbCbimcUGVIC-2">
          <mxGeometry width="50" height="50" relative="1" as="geometry">
            <mxPoint x="360" y="530" as="sourcePoint" />
            <mxPoint x="410" y="480" as="targetPoint" />
          </mxGeometry>
        </mxCell>
        <mxCell id="rBm0Z_b_FbCbimcUGVIC-23" value="_" style="text;html=1;strokeColor=none;fillColor=none;align=center;verticalAlign=middle;whiteSpace=wrap;rounded=0;fontSize=16;" vertex="1" parent="1">
          <mxGeometry x="210" y="368" width="60" height="30" as="geometry" />
        </mxCell>
        <mxCell id="rBm0Z_b_FbCbimcUGVIC-24" value="" style="rounded=0;whiteSpace=wrap;html=1;fillColor=none;strokeColor=#FFFFFF;" vertex="1" parent="1">
          <mxGeometry x="10" y="270" width="570" height="440" as="geometry" />
        </mxCell>
      </root>
    </mxGraphModel>
  </diagram>
</mxfile>
